<svg width="40" height="40" viewBox="0 0 40 40" fill="none" xmlns="http://www.w3.org/2000/svg">
<rect width="40" height="40" rx="20" fill="white"/>
<path d="M13.6865 21.596C13.5447 22.4981 14.1785 23.1241 14.9545 23.4361C17.9297 24.6324 22.07 24.6324 25.0451 23.4361C25.8212 23.1241 26.455 22.4981 26.3132 21.596C26.2261 21.0417 25.7953 20.5801 25.4761 20.1293C25.058 19.5317 25.0165 18.8798 25.0164 18.1863C25.0164 15.5061 22.7704 13.3333 19.9998 13.3333C17.2293 13.3333 14.9833 15.5061 14.9833 18.1863C14.9832 18.8798 14.9417 19.5317 14.5236 20.1293C14.2044 20.5801 13.7736 21.0417 13.6865 21.596Z" stroke="black" stroke-width="1.5" stroke-linecap="round" stroke-linejoin="round"/>
<path d="M18 26C18.5308 26.4146 19.2317 26.6667 20 26.6667C20.7683 26.6667 21.4693 26.4146 22 26" stroke="black" stroke-width="1.5" stroke-linecap="round" stroke-linejoin="round"/>
<rect x="21" y="9" width="8" height="8" rx="4" fill="#FF5B5B"/>
</svg>
