<svg width="40" height="40" viewBox="0 0 40 40" fill="none" xmlns="http://www.w3.org/2000/svg">
<rect width="40" height="40" rx="20" fill="#E8E8E8"/>
<g clip-path="url(#clip0_1_1812)">
<path d="M20.4978 8L20.334 8.56954V25.0964L20.4978 25.2637L27.9955 20.729L20.4978 8Z" fill="#343434"/>
<path d="M20.4978 8L13 20.729L20.4978 25.2637V17.2421V8Z" fill="#8C8C8C"/>
<path d="M20.4976 26.7163L20.4053 26.8314V32.7186L20.4976 32.9944L27.9998 22.1839L20.4976 26.7163Z" fill="#3C3C3B"/>
<path d="M20.4978 32.9943V26.7161L13 22.1838L20.4978 32.9943Z" fill="#8C8C8C"/>
<path d="M20.4976 25.2637L27.9952 20.7291L20.4976 17.2422V25.2637Z" fill="#141414"/>
<path d="M13 20.729L20.4977 25.2637V17.2421L13 20.729Z" fill="#393939"/>
</g>
<defs>
<clipPath id="clip0_1_1812">
<rect width="15" height="25" fill="white" transform="translate(13 8)"/>
</clipPath>
</defs>
</svg>
